<?xml version="1.0" standalone="no"?>
<!DOCTYPE svg PUBLIC "-//W3C//DTD SVG 20010904//EN"
 "http://www.w3.org/TR/2001/REC-SVG-20010904/DTD/svg10.dtd">
<svg version="1.0" xmlns="http://www.w3.org/2000/svg"
 width="264.000000pt" height="264.000000pt" viewBox="0 0 264.000000 264.000000"
 preserveAspectRatio="xMidYMid meet">
<metadata>
Created by potrace 1.11, written by Peter Selinger 2001-2013
</metadata>
<g transform="translate(0.000000,264.000000) scale(0.100000,-0.100000)"
fill="#000000" stroke="none">
<path d="M1140 2619 c-151 -29 -329 -81 -365 -108 -5 -4 -26 -14 -45 -21 -120
-48 -333 -216 -430 -340 -14 -18 -30 -37 -36 -44 -23 -24 -111 -173 -141 -236
-33 -71 -80 -205 -89 -254 -3 -17 -10 -51 -16 -76 -13 -56 -19 -322 -8 -381 4
-24 10 -60 13 -79 6 -42 32 -135 59 -210 25 -69 107 -234 119 -238 5 -2 9 -8
9 -13 0 -9 32 -58 55 -85 6 -6 24 -29 42 -51 192 -237 493 -406 813 -457 106
-17 303 -17 395 -1 129 23 140 26 229 56 232 78 474 245 605 419 14 19 29 37
32 40 13 10 106 166 133 225 141 300 163 660 58 966 -27 78 -99 237 -113 249
-3 3 -16 24 -29 48 -13 23 -27 42 -32 42 -4 0 -8 7 -8 15 0 7 -6 18 -13 22 -7
4 -20 19 -28 33 -38 59 -178 187 -288 264 -125 87 -375 185 -536 211 -63 11
-335 13 -385 4z"/>
</g>
</svg>
